Coordinates
version=1
nRows=13
nColumns=22
inDegrees=yes

Units are S.I. units (second, meters, Newtons, ...)
If the header above contains a line with 'inDegrees', this indicates whether rotational values are in degrees (yes) or radians (no).

endheader
time	pelvis_tilt	pelvis_list	pelvis_rotation	pelvis_tx	pelvis_ty	pelvis_tz	hip_flexion_r	hip_adduction_r	hip_rotation_r	knee_angle_r	ankle_angle_r	subtalar_angle_r	hip_flexion_l	hip_adduction_l	hip_rotation_l	knee_angle_l	ankle_angle_l	subtalar_angle_l	lumbar_extension	lumbar_bending	lumbar_rotation
      1.23000000	     -5.57953721	     -2.94909560	     -2.83767331	      1.09292088	      0.94208249	     -0.26580177	     10.43711306	      2.56354818	     -1.66638578	    -17.13144857	     11.11627682	     -2.24658560	      8.66327134	     -6.03841385	     -7.11299363	    -15.50953092	     11.54500349	     -1.20582725	     -2.55927846	      0.53760596	     -0.48170981
      1.24000000	     -5.57963933	     -2.96597537	     -2.82693547	      1.09195905	      0.94210720	     -0.26543131	     10.66378384	      2.60765548	     -1.67514296	    -17.41758940	     11.08768562	     -2.24429523	      8.90786572	     -6.09832945	     -7.03650940	    -15.81706922	     11.52244966	     -1.14886497	     -2.66799030	      0.54081341	     -0.51499665
      1.25000000	     -5.57271702	     -2.98617530	     -2.80805141	      1.09093603	      0.94213594	     -0.26502570	     10.89706066	      2.65637975	     -1.69696934	    -17.72268663	     11.05939138	     -2.24756160	      9.17011242	     -6.16648750	     -6.95101464	    -16.15804458	     11.49893257	     -1.08604808	     -2.79062115	      0.54866472	     -0.56451713
      1.26000000	     -5.56197331	     -3.00493299	     -2.78178691	      1.08983454	      0.94216309	     -0.26458970	     11.14035397	      2.70525624	     -1.71914790	    -18.04332918	     11.02868794	     -2.25895864	      9.45798827	     -6.23724425	     -6.84369423	    -16.54051007	     11.47073962	     -1.00833355	     -2.92605614	      0.55702207	     -0.61713410
      1.27000000	     -5.55400767	     -3.02083373	     -2.74987509	      1.08865151	      0.94217740	     -0.26411571	     11.39680903	      2.75465524	     -1.73627125	    -18.37358998	     10.99512355	     -2.28107711	      9.77931216	     -6.30922343	     -6.71441365	    -16.96340760	     11.44202248	     -0.90988757	     -3.06487223	      0.56151400	     -0.66426946
      1.28000000	     -5.53181133	     -3.03394103	     -2.72230145	      1.08738878	      0.94219750	     -0.26360280	     11.65292895	      2.80419819	     -1.74591068	    -18.71888010	     10.96164821	     -2.31328590	     10.11110867	     -6.38275813	     -6.58364828	    -17.42393191	     11.40595705	     -0.80045012	     -3.22930374	      0.56856909	     -0.70588521
      1.29000000	     -5.50443986	     -3.04212415	     -2.70164251	      1.08602844	      0.94220842	     -0.26304400	     11.92023119	      2.85386984	     -1.73484162	    -19.08085394	     10.92603564	     -2.35563676	     10.46414981	     -6.45526507	     -6.44415597	    -17.92179132	     11.36579728	     -0.67865380	     -3.41095457	      0.57348532	     -0.72354049
      1.30000000	     -5.46404048	     -3.04445103	     -2.69561221	      1.08456383	      0.94221426	     -0.26241745	     12.19455992	      2.90535402	     -1.69643100	    -19.46559704	     10.89181923	     -2.40872679	     10.82595972	     -6.52773216	     -6.31321012	    -18.45206444	     11.31558141	     -0.54929668	     -3.62105402	      0.57413730	     -0.70497699
      1.31000000	     -5.40524476	     -3.04190277	     -2.71408695	      1.08297365	      0.94221861	     -0.26171137	     12.47489942	      2.96164282	     -1.62313380	    -19.87821746	     10.85900809	     -2.46855923	     11.18602273	     -6.60151238	     -6.19777046	    -19.00744677	     11.26316574	     -0.42812220	     -3.86981316	      0.57261417	     -0.64155079
      1.32000000	     -5.33066823	     -3.03164786	     -2.76397841	      1.08123388	      0.94221170	     -0.26090962	     12.76971652	      3.02272099	     -1.51037868	    -20.32535329	     10.82570486	     -2.54139545	     11.54425306	     -6.67385192	     -6.09638954	    -19.58400014	     11.20087862	     -0.30436629	     -4.15734495	      0.56616078	     -0.52239024
      1.33000000	     -5.23228856	     -3.01510896	     -2.84489031	      1.07933692	      0.94220736	     -0.26000986	     13.06508842	      3.08976084	     -1.36506367	    -20.79609736	     10.79125037	     -2.62186703	     11.88930469	     -6.74636524	     -6.01505534	    -20.17569900	     11.13316383	     -0.19183642	     -4.49507398	      0.55462910	     -0.34368959
      1.34000000	     -5.12170367	     -2.99323314	     -2.95278653	      1.07727757	      0.94218513	     -0.25901022	     13.37460755	      3.16438597	     -1.19705838	    -21.29194963	     10.75207075	     -2.71569718	     12.23112331	     -6.81982433	     -5.94223158	    -20.77731356	     11.05774517	     -0.08112597	     -4.86840652	      0.54031836	     -0.11593280
      1.35000000	     -5.00279648	     -2.96748472	     -3.07391434	      1.07509118	      0.94214680	     -0.25792824	     13.68701132	      3.24395038	     -1.02993245	    -21.79222271	     10.70744090	     -2.82124935	     12.56965869	     -6.89292397	     -5.86960505	    -21.37845886	     10.97271462	      0.02603496	     -5.27042497	      0.52448217	      0.14947408
